<?xml version="1.0" encoding="UTF-8"?> <svg xmlns="http://www.w3.org/2000/svg" xmlns:xlink="http://www.w3.org/1999/xlink" id="cloud-scale" image-rendering="auto" preserveAspectRatio="xMidYMid meet" x="0px" y="0px" width="500" height="420" viewBox="0 0 500 420"><g id="Scene-1" overflow="visible"><g id="Tween-11" transform="translate(247.05 143.15)"><animateTransform attributeName="transform" type="translate" repeatCount="indefinite" dur="2s" keyTimes="0;.475;.975;1" values="247.05,143.15;267.05,143.15;247.05,143.15;247.05,143.15"></animateTransform><g id="Tween 11_0.0"><g><g id="Layer3_0_FILL"><path fill="#B4C3D2" stroke="none" d="M111.5 -55.3Q102.35 -63.05 90.9 -66.4 67.3 -73.65 44.05 -62.5 28.95 -93.95 1.6 -107.7 -22.7 -119.95 -49.6 -115.6 -84 -110 -103.45 -88.05 -122.15 -67 -126.65 -31.15L-132.75 -31.35Q-136.45 -31.4 -138.8 -31.15 -167.55 -27.3 -186.2 -4.5 -204.85 18.3 -203.1 47.3 -201.35 76.5 -180 96.6 -158.75 116.65 -129.45 116.7 .75 116.9 130.9 116.7 159.5 116.65 180.6 96.45 201.65 76.25 203.15 47.6 204.7 16.65 184.9 -6 165 -28.7 134.1 -31.1 130.8 -31.35 129 -32.75 127.45 -33.95 125.9 -36.95 120.65 -47.65 111.5 -55.3M47.8 -56.9Q57.55 -62.1 68.5 -63.05 79.55 -63.9 89.95 -60.4 100.45 -56.9 108.6 -49.45 116.75 -42.05 121.3 -31.95 122.95 -28.45 125.1 -26.9 127.25 -25.4 131.2 -25.15 155.8 -23.6 173.2 -9 190.65 5.45 195.3 28.05 198.55 44.15 194.85 59.45 191.25 74.15 181.8 85.9 172.35 97.6 158.65 104.1 144.4 111 128 111.05L.2 111.05 .2 111Q-84.5 111.1 -126.85 111.05 -150.2 111 -168.05 98.45 -185.8 86 -193.2 64.7 -198.85 48.4 -195.95 31.5 -193.25 15.4 -183.45 2.15 -173.6 -11.1 -159.1 -18.35 -143.8 -25.95 -126.65 -25.15 -122.6 -25 -121.2 -26.45 -119.8 -27.8 -119.7 -31.75 -118.75 -60.15 -99.75 -81.95 -80.8 -103.8 -52.5 -109.2 -24.95 -114.45 .6 -100.7 26.15 -86.95 37.3 -60.75 39.25 -56.1 41.25 -55.3 43.35 -54.5 47.8 -56.9Z"></path><path fill="#DDE5ED" stroke="none" d="M68.5 -63.05Q57.55 -62.1 47.8 -56.9 43.35 -54.5 41.25 -55.3 39.25 -56.1 37.3 -60.75 26.15 -86.95 .6 -100.7 -24.95 -114.45 -52.5 -109.2 -80.8 -103.8 -99.75 -81.95 -118.75 -60.15 -119.7 -31.75 -119.8 -27.8 -121.2 -26.45 -122.6 -25 -126.65 -25.15 -143.8 -25.95 -159.1 -18.35 -173.6 -11.1 -183.45 2.15 -193.25 15.4 -195.95 31.5 -198.85 48.4 -193.2 64.7 -185.8 86 -168.05 98.45 -150.2 111 -126.85 111.05 -84.5 111.1 .2 111L.2 111.05 128 111.05Q144.4 111 158.65 104.1 172.35 97.6 181.8 85.9 191.25 74.15 194.85 59.45 198.55 44.15 195.3 28.05 190.65 5.45 173.2 -9 155.8 -23.6 131.2 -25.15 127.25 -25.4 125.1 -26.9 122.95 -28.45 121.3 -31.95 116.75 -42.05 108.6 -49.45 100.45 -56.9 89.95 -60.4 79.55 -63.9 68.5 -63.05Z"></path></g></g></g></g><g id="Tween-10" transform="translate(325 269.4)"><animateTransform attributeName="transform" type="translate" repeatCount="indefinite" dur="2s" keyTimes="0;.475;.975;1" values="325,269.4;305,269.4;325,269.4;325,269.4"></animateTransform><g id="Tween 10_0.0"><g><g id="Layer2_0_FILL"><path fill="#B4C3D2" stroke="none" d="M33.65 -47.7Q22.1 -71.75 1.25 -82.25 -17.35 -91.6 -37.9 -88.25 -64.15 -84 -79 -67.2 -93.3 -51.15 -96.75 -23.75L-101.4 -23.9Q-104.2 -23.95 -106 -23.75 -127.95 -20.8 -142.2 -3.4 -156.45 14 -155.15 36.15 -153.8 58.45 -137.5 73.8 -121.25 89.15 -98.85 89.15 .6 89.3 100 89.15 121.85 89.15 137.95 73.7 154.05 58.25 155.2 36.4 156.35 12.75 141.25 -4.55 126.05 -21.9 102.45 -23.7 99.9 -23.9 98.55 -25 97.35 -25.9 96.15 -28.2 92.15 -36.35 85.15 -42.2 78.2 -48.15 69.45 -50.7 51.4 -56.25 33.65 -47.7M31.5 -42.2Q33.1 -41.6 36.5 -43.45 43.95 -47.4 52.35 -48.15 60.75 -48.8 68.7 -46.1 76.75 -43.45 82.95 -37.75 89.2 -32.1 92.65 -24.35 93.9 -21.7 95.55 -20.5 97.2 -19.35 100.2 -19.2 119 -18 132.3 -6.85 145.65 4.2 149.2 21.45 151.65 33.75 148.85 45.45 146.1 56.65 138.85 65.65 131.65 74.6 121.2 79.55 110.3 84.8 97.8 84.85L.15 84.85 .15 84.8Q-64.55 84.9 -96.9 84.85 -114.7 84.8 -128.35 75.25 -141.9 65.7 -147.55 49.45 -151.9 37 -149.65 24.1 -147.6 11.8 -140.1 1.65 -132.6 -8.45 -121.5 -14 -109.85 -19.8 -96.75 -19.2 -93.65 -19.05 -92.55 -20.15 -91.5 -21.2 -91.45 -24.2 -90.7 -45.9 -76.2 -62.55 -61.7 -79.25 -40.1 -83.4 -19.05 -87.4 .45 -76.9 20 -66.4 28.5 -46.35 30 -42.8 31.5 -42.2Z"></path><path fill="#DDE5ED" stroke="none" d="M36.5 -43.45Q33.1 -41.6 31.5 -42.2 30 -42.8 28.5 -46.35 20 -66.4 .45 -76.9 -19.05 -87.4 -40.1 -83.4 -61.7 -79.25 -76.2 -62.55 -90.7 -45.9 -91.45 -24.2 -91.5 -21.2 -92.55 -20.15 -93.65 -19.05 -96.75 -19.2 -109.85 -19.8 -121.5 -14 -132.6 -8.45 -140.1 1.65 -147.6 11.8 -149.65 24.1 -151.9 37 -147.55 49.45 -141.9 65.7 -128.35 75.25 -114.7 84.8 -96.9 84.85 -64.55 84.9 .15 84.8L.15 84.85 97.8 84.85Q110.3 84.8 121.2 79.55 131.65 74.6 138.85 65.65 146.1 56.65 148.85 45.45 151.65 33.75 149.2 21.45 145.65 4.2 132.3 -6.85 119 -18 100.2 -19.2 97.2 -19.35 95.55 -20.5 93.9 -21.7 92.65 -24.35 89.2 -32.1 82.95 -37.75 76.75 -43.45 68.7 -46.1 60.75 -48.8 52.35 -48.15 43.95 -47.4 36.5 -43.45Z"></path></g></g></g></g><g id="Tween-9" transform="translate(155.05 351.2)"><animateTransform attributeName="transform" type="translate" repeatCount="indefinite" dur="2s" keyTimes="0;.475;.975;1" values="155.05,351.2;175.05,351.2;155.05,351.2;155.05,351.2"></animateTransform><g id="Tween 9_0.0"><g><g id="Layer1_0_FILL"><path fill="#B4C3D2" stroke="none" d="M67.7 -19.85Q64.9 -25.6 59.95 -29.75 55.05 -33.9 48.9 -35.7 36.2 -39.6 23.7 -33.6 15.6 -50.5 .9 -57.9 -12.15 -64.5 -26.65 -62.15 -45.1 -59.15 -55.55 -47.35 -65.6 -36 -68.05 -16.75L-71.3 -16.85Q-73.3 -16.9 -74.55 -16.75 -90 -14.7 -100.05 -2.45 -108.2 7.55 -109.1 19.8 -109.3 22.55 -109.15 25.4 -108.2 41.1 -96.7 51.9 -85.3 62.7 -69.55 62.7 .45 62.8 70.4 62.7 85.75 62.7 97.1 51.85 108.4 40.95 109.2 25.55 109.35 22.6 109.15 19.8 108.15 6.8 99.4 -3.25 88.7 -15.45 72.1 -16.75 70.35 -16.85 69.35 -17.6 68.55 -18.25 67.7 -19.85M25.7 -30.6Q30.95 -33.4 36.85 -33.9 42.8 -34.35 48.4 -32.45 54 -30.6 58.4 -26.6 62.8 -22.6 65.25 -17.2 66.1 -15.3 67.25 -14.45 68.45 -13.65 70.55 -13.55 83.75 -12.7 93.1 -4.85 102.5 2.9 105 15.05 105.5 17.45 105.7 19.8 106.2 26 104.75 31.95 102.85 39.85 97.75 46.15 92.65 52.45 85.3 55.95 77.65 59.65 68.85 59.7L.15 59.7 .15 59.65Q-45.4 59.7 -68.15 59.7 -80.7 59.65 -90.3 52.9 -99.85 46.2 -103.8 34.75 -106.35 27.4 -105.65 19.8 -105.55 18.35 -105.3 16.9 -103.85 8.25 -98.55 1.15 -93.25 -6 -85.5 -9.85 -77.25 -13.95 -68.05 -13.55 -65.85 -13.45 -65.1 -14.25 -64.35 -14.95 -64.3 -17.1 -63.8 -32.35 -53.6 -44.05 -43.4 -55.8 -28.2 -58.7 -13.4 -61.55 .35 -54.15 14.1 -46.75 20.1 -32.65 21.15 -30.15 22.2 -29.75 23.35 -29.3 25.7 -30.6Z"></path><path fill="#DDE5ED" stroke="none" d="M36.85 -33.9Q30.95 -33.4 25.7 -30.6 23.35 -29.3 22.2 -29.75 21.15 -30.15 20.1 -32.65 14.1 -46.75 .35 -54.15 -13.4 -61.55 -28.2 -58.7 -43.4 -55.8 -53.6 -44.05 -63.8 -32.35 -64.3 -17.1 -64.35 -14.95 -65.1 -14.25 -65.85 -13.45 -68.05 -13.55 -77.25 -13.95 -85.5 -9.85 -93.25 -6 -98.55 1.15 -103.85 8.25 -105.3 16.9 -105.55 18.35 -105.65 19.8 -106.35 27.4 -103.8 34.75 -99.85 46.2 -90.3 52.9 -80.7 59.65 -68.15 59.7 -45.4 59.7 .15 59.65L.15 59.7 68.85 59.7Q77.65 59.65 85.3 55.95 92.65 52.45 97.75 46.15 102.85 39.85 104.75 31.95 106.2 26 105.7 19.8 105.5 17.45 105 15.05 102.5 2.9 93.1 -4.85 83.75 -12.7 70.55 -13.55 68.45 -13.65 67.25 -14.45 66.1 -15.3 65.25 -17.2 62.8 -22.6 58.4 -26.6 54 -30.6 48.4 -32.45 42.8 -34.35 36.85 -33.9Z"></path></g></g></g></g></g></svg> 