<svg xmlns="http://www.w3.org/2000/svg" width="452" height="316.082" viewBox="0 0 452 316.082"><path fill="#fff" d="M91.293 271.185c-3.071 0-6.142-1.172-8.485-3.515-4.686-4.687-4.686-12.284 0-16.971l41.205-41.205c4.687-4.686 12.284-4.686 16.971 0 4.686 4.687 4.686 12.284 0 16.971l-41.206 41.205c-2.343 2.343-5.414 3.515-8.485 3.515zM109.293 316.185c-3.071 0-6.142-1.172-8.485-3.515-4.686-4.687-4.686-12.284 0-16.971l84.205-86.205c4.686-4.686 12.285-4.686 16.971 0 4.687 4.687 4.687 12.284 0 16.971l-84.205 86.205c-2.344 2.343-5.415 3.515-8.486 3.515zM201.293 280.185c-3.071 0-6.142-1.172-8.485-3.515-4.686-4.687-4.686-12.284 0-16.971l50.205-50.205c4.686-4.686 12.285-4.686 16.971 0 4.687 4.687 4.687 12.284 0 16.971l-50.205 50.205c-2.344 2.343-5.415 3.515-8.486 3.515z"/><path d="M72.894 170.089l-.014.094c.039.981.107 1.954.205 2.92l-.01-.077c-.096-.947-.174-1.899-.211-2.862l.029-.084c-.021-.597.002-1.196.002-1.799v.001c.001.604-.025 1.209-.001 1.807zM72.822 168.28c0 .603.012 1.202.034 1.799" fill="none"/><path fill="#fff" d="M74.922 182.171c-.579-1.874-1.042-3.797-1.387-5.76 1.319 7.55 4.434 14.492 8.899 20.398-2.123-5.229-5.865-9.309-7.512-14.638zM73.108 173.405c.103.944.233 1.879.391 2.806-.158-.926-.287-1.862-.391-2.806zM72.861 170.163c.038.963.114 1.915.209 2.862-.095-.947-.171-1.9-.209-2.862zM73.499 176.211l.036.2-.036-.2z"/><path d="M72.856 170.079l.005.084" fill="none"/><path fill="#fff" d="M387.543 123.876c-5.084-6.36-11.197-11.819-18-16.055.194-2.554.293-5.144.293-7.712 0-26.733-10.41-51.879-29.313-70.782s-44.035-29.327-70.767-29.327c-22.096 0-43.046 7.063-60.585 20.426-1.137.866-2.252 1.76-3.348 2.673-.494.411-.97.841-1.454 1.262-.581.504-1.167 1.002-1.735 1.519-.638.58-1.258 1.179-1.88 1.774-.385.368-.774.73-1.153 1.104-.72.712-1.423 1.441-2.121 2.175l-.758.792c-.771.828-1.524 1.672-2.268 2.525l-.463.53c-.799.931-1.582 1.877-2.346 2.837l-.242.301c-.808 1.021-1.597 2.058-2.365 3.108l-.088.121c-.797 1.094-1.572 2.202-2.325 3.326l-.002.003c-.459.686-.929 1.361-1.37 2.057-6.067-1.668-12.367-2.531-18.734-2.531-1.902 0-3.785.088-5.65.235l-.115.008c-.951.077-1.897.177-2.838.291l-.241.027c-.906.113-1.807.248-2.702.396l-.338.053c-.865.146-1.724.313-2.578.492l-.422.085c-.826.178-1.646.374-2.463.58l-.492.122c-.791.206-1.574.43-2.354.662l-.554.164c-.756.232-1.506.48-2.252.737l-.605.208c-.724.257-1.439.528-2.152.807l-.654.258c-.691.279-1.376.571-2.057.871l-.691.307c-.66.3-1.313.611-1.963.931l-.727.36c-.631.318-1.254.648-1.873.985l-.754.414c-.6.336-1.193.682-1.783 1.034l-.779.474c-.57.352-1.135.711-1.695 1.078l-.799.533c-.541.365-1.076.737-1.605 1.116l-.818.598c-.512.377-1.019.761-1.52 1.152l-.826.656c-.484.39-.964.783-1.438 1.186l-.834.722c-.455.399-.908.802-1.353 1.212l-.838.789c-.427.406-.851.816-1.269 1.232l-.837.857c-.4.415-.8.831-1.19 1.256-.277.302-.55.609-.823.917-.376.422-.749.845-1.115 1.276-.274.324-.543.655-.813.985-.349.427-.698.854-1.036 1.288-.271.349-.535.703-.8 1.057-.322.43-.646.858-.958 1.295-.266.372-.521.751-.781 1.129-.296.431-.594.861-.881 1.3-.257.394-.504.794-.754 1.193-.272.435-.547.868-.811 1.31-.248.415-.483.838-.723 1.258-.248.437-.5.87-.739 1.313-.237.438-.461.884-.688 1.327-.225.437-.453.87-.669 1.312-.226.463-.438.934-.653 1.402-.199.432-.404.861-.596 1.298-.213.49-.411.988-.614 1.483-.175.427-.356.851-.524 1.281-.201.521-.386 1.051-.575 1.578-.149.414-.306.824-.447 1.241-.191.565-.363 1.139-.541 1.71-.12.39-.251.775-.365 1.167-.188.644-.354 1.295-.523 1.945l-.262.982c-.241.984-.463 1.977-.662 2.977-.824.281-1.641.58-2.451.891l-.794.317c-.541.215-1.08.433-1.615.66l-.938.414c-.478.211-.953.426-1.425.648-.331.155-.661.315-.989.477-.446.219-.891.442-1.332.67l-.997.524c-.432.231-.86.47-1.286.711l-.979.558c-.434.253-.86.516-1.287.777l-.914.563c-.505.32-1.002.652-1.498.985l-.645.427-.092.066c-.736.508-1.463 1.028-2.179 1.563l-.407.315c-.611.464-1.219.933-1.814 1.415l-.376.314c-.604.497-1.204 1-1.792 1.517l-.271.245c-.619.551-1.232 1.108-1.832 1.681l-.158.153c-.636.609-1.262 1.229-1.875 1.861l-.061.064c-.877.906-1.722 1.845-2.551 2.797l-.568.662c-1.424 1.676-2.781 3.412-4.048 5.218l-.022.032c-.528.754-1.042 1.518-1.542 2.292l-.061.095c-.483.752-.953 1.514-1.409 2.285l-.099.168c-.438.746-.863 1.502-1.275 2.266l-.133.247c-.395.738-.775 1.484-1.145 2.237l-.163.333c-.352.727-.688 1.461-1.016 2.2l-.188.422c-.309.713-.604 1.432-.891 2.155l-.206.519c-.271.697-.525 1.4-.774 2.108l-.213.607c-.232.682-.451 1.369-.663 2.06l-.216.7c-.197.666-.379 1.337-.557 2.011l-.209.788c-.164.651-.313 1.31-.459 1.968l-.194.867c-.134.639-.251 1.284-.366 1.93l-.172.939c-.105.634-.193 1.272-.281 1.911l-.141.989c-.079.642-.141 1.289-.203 1.936l-.1.993c-.057.685-.093 1.374-.13 2.063l-.054.895c-.041.989-.063 1.982-.063 2.981 0 .986.028 1.97.068 2.95l.031.693c.049.951.113 1.9.199 2.846l.056.534c.079.796.173 1.591.278 2.382l.108.807c.127.876.271 1.749.429 2.617l.186.949c.125.632.258 1.26.399 1.887l.227 1.001c.188.782.394 1.56.608 2.333.117.426.24.849.366 1.271.141.474.289.945.439 1.417.228.708.465 1.414.714 2.115.141.396.281.792.428 1.185.188.498.378.995.576 1.488l.391.947c.359.86.734 1.715 1.127 2.562l.385.821c.25.523.504 1.047.768 1.564l.002.161.639 1.237 2.176 4.75c.701 1.325 1.646 2.438 2.742 3.354.197.271.396.542.598.803h.002c3.729 2 9.049 3.023 13.76.533 5.702-3.016 7.56-9.275 5.748-14.724l-.002-.043c-5.066-6.7-8.396-14.748-9.334-23.493l.008.05-.038-.38.006.077c-.099-.966-.176-1.938-.215-2.92l.084-.094c-.023-.598.055-1.203.055-1.807v-.002c0-.794-.068-1.584-.029-2.368l.018-.847c.034-.498.041-.996.091-1.49.035-.354.075-.706.118-1.059.051-.414.09-.829.15-1.239.061-.396.132-.787.2-1.181.063-.359.12-.72.19-1.077.084-.424.183-.844.278-1.264l.219-.952c.111-.448.236-.891.361-1.333l.236-.836c.142-.47.295-.934.451-1.397l.244-.724c.172-.488.356-.971.545-1.452l.242-.618c.205-.505.422-1.004.645-1.5l.232-.518c.24-.52.492-1.032.75-1.542l.213-.418c.276-.532.563-1.059.859-1.579l.186-.324c.313-.542.638-1.078.973-1.605l.152-.24c.352-.549.713-1.09 1.086-1.622l.116-.164c.39-.552.79-1.096 1.202-1.629l.072-.093c.429-.553.869-1.097 1.32-1.629l.025-.029c.477-.561.967-1.109 1.468-1.647.521-.559 1.054-1.105 1.601-1.638l.023-.022c.547-.533 1.108-1.053 1.682-1.56l.074-.064c.555-.488 1.121-.964 1.698-1.426l.138-.109c.557-.443 1.125-.873 1.701-1.29l.206-.148c.557-.399 1.123-.784 1.697-1.159l.277-.18c.554-.355 1.115-.697 1.683-1.029l.357-.208c.547-.313 1.102-.612 1.661-.904l.437-.227c.539-.273 1.086-.533 1.638-.786l.513-.235c.533-.236 1.072-.459 1.615-.676l.588-.235c.523-.201 1.054-.387 1.586-.569l.666-.229c.514-.167 1.035-.319 1.559-.47l.734-.212c.51-.137 1.025-.257 1.54-.377l.796-.187c.506-.108 1.019-.198 1.53-.29l.842-.152c.517-.083 1.039-.146 1.562-.211l.844-.108c.562-.06 1.129-.098 1.697-.137l.739-.058c.817-.043 1.64-.066 2.468-.066l.232.038c-.089-.669-.16-1.342-.223-2.017l-.04-.469c-.056-.669.096-1.34.068-2.016l.195-.023v-.007l-.23-1.684c0-.806-.076-1.607-.037-2.403l.012-.798c.035-.525.043-1.052.096-1.571l.111-.998c.055-.446.098-.896.165-1.338.057-.368.126-.73.19-1.096.07-.4.132-.804.212-1.2.08-.392.177-.777.266-1.166.084-.363.159-.729.252-1.09.104-.406.225-.807.34-1.209.094-.334.182-.672.283-1.002.131-.421.277-.834.418-1.249l.311-.916c.157-.433.331-.857.5-1.284l.328-.83c.187-.444.389-.88.588-1.317l.337-.744c.218-.456.451-.902.683-1.349l.337-.657c.251-.466.517-.923.782-1.379l.328-.568c.284-.474.584-.937.885-1.398l.313-.489c.32-.477.652-.943.988-1.407l.296-.416c.357-.482.728-.954 1.103-1.423l.262-.332c.396-.485.805-.959 1.219-1.428l.225-.26c.433-.482.877-.952 1.329-1.416l.192-.201c.47-.477.951-.94 1.44-1.396l.154-.146c.507-.469 1.025-.924 1.553-1.369l.112-.098c.543-.456 1.098-.899 1.662-1.331l.07-.056c.579-.441 1.168-.869 1.768-1.283l.031-.022c.461-.318.929-.628 1.401-.931.407-.26.82-.511 1.235-.758l.197-.121c.475-.279.953-.55 1.438-.813l.021-.013c6.415-3.478 13.731-5.505 21.51-5.642l.844-.021c.845 0 1.683.029 2.516.073l.715.048c.623.043 1.243.097 1.859.163l.686.077c.77.096 1.533.204 2.291.336l.125.02c.857.152 1.706.328 2.546.525l.202.051c.765.184 1.522.386 2.272.606l.297.088c.962.289 1.905.618 2.839.965l.53.196c.874.337 1.733.702 2.581 1.089l.615.288c.618.293 1.223.608 1.825.928.349.185.703.361 1.048.555.878.493 1.744 1.007 2.586 1.555l.113.075c.662.432 1.309.884 1.947 1.347l.466.342c.675.504 1.341 1.02 1.987 1.559 9.24-31.707 38.499-54.879 73.19-54.879 42.108 0 76.246 34.137 76.246 76.247 0 7.677-1.146 15.083-3.257 22.072 20.968 4.697 36.641 23.737 36.641 46.124 0 .743-.021 1.481-.057 2.217l-.053.822c-.028.447-.061.895-.102 1.34-.033.351-.072.7-.112 1.049-.04.345-.085.688-.132 1.03-.057.41-.115.819-.183 1.227l-.123.688c-.126.699-.272 1.392-.429 2.081l-.174.726c-.115.477-.238.951-.368 1.424l-.192.687c-.17.579-.35 1.154-.539 1.725l-.102.313-.213.581c-.438 1.216-.924 2.408-1.45 3.58l-3.394 6.309c-8.426 13.133-23.008 22.008-39.513 22.008h-34.407 7.848c-7.783 0-14.094 5.007-14.094 12.789 0 3.894 1.576 6.112 4.127 8.662s6.075 3.549 9.967 3.549h34.391-7.829c18.974 0 36.842-8.064 50.336-21.877 2.425-2.482 4.646-5.116 6.666-7.874 4.169-5.545 7.498-11.99 9.835-18.603l.002-.004.352-1.063c.229-.681.457-1.361.666-2.049.135-.448.256-.901.383-1.353.171-.604.342-1.209.496-1.818.119-.469.227-.941.337-1.414.14-.602.276-1.203.4-1.809.098-.473.188-.948.276-1.424.114-.617.22-1.236.318-1.858.073-.464.145-.929.209-1.396.09-.652.168-1.308.24-1.963.048-.439.1-.877.141-1.316.066-.73.115-1.465.16-2.198l.07-1.106c.051-1.104.081-2.213.081-3.324.001-16.147-5.567-32.113-15.677-44.757z"/></svg>