<svg xmlns="http://www.w3.org/2000/svg" width="452" height="282.082" viewBox="0 0 452 282.082"><g fill="#fff"><path d="M227 241.082c-6.627 0-12-5.62-12-12.5s5.373-12.5 12-12.5 12 5.62 12 12.5-5.373 12.5-12 12.5zM166 241.082c-6.627 0-12-5.62-12-12.5s5.373-12.5 12-12.5 12 5.62 12 12.5-5.373 12.5-12 12.5zM105 241.082c-6.627 0-12-5.62-12-12.5s5.373-12.5 12-12.5 12 5.62 12 12.5-5.373 12.5-12 12.5zM199 282.082c-6.627 0-12-5.62-12-12.5s5.373-12.5 12-12.5 12 5.62 12 12.5-5.373 12.5-12 12.5zM138 282.082c-6.627 0-12-5.62-12-12.5s5.373-12.5 12-12.5 12 5.62 12 12.5-5.373 12.5-12 12.5zM288 241.082c-6.627 0-12-5.62-12-12.5s5.373-12.5 12-12.5 12 5.62 12 12.5-5.373 12.5-12 12.5zM227 241.082c-6.627 0-12-5.62-12-12.5s5.373-12.5 12-12.5 12 5.62 12 12.5-5.373 12.5-12 12.5zM260 282.082c-6.627 0-12-5.62-12-12.5s5.373-12.5 12-12.5 12 5.62 12 12.5-5.373 12.5-12 12.5zM199 282.082c-6.627 0-12-5.62-12-12.5s5.373-12.5 12-12.5 12 5.62 12 12.5-5.373 12.5-12 12.5zM349 241.082c-6.627 0-12-5.62-12-12.5s5.373-12.5 12-12.5 12 5.62 12 12.5-5.373 12.5-12 12.5zM321 282.082c-6.627 0-12-5.62-12-12.5s5.373-12.5 12-12.5 12 5.62 12 12.5-5.373 12.5-12 12.5zM77 282.082c-6.627 0-12-5.62-12-12.5s5.373-12.5 12-12.5 12 5.62 12 12.5-5.373 12.5-12 12.5zM387.647 123.876c-5.084-6.36-11.197-11.819-18-16.055.194-2.554.293-5.144.293-7.712 0-26.733-10.41-51.879-29.313-70.782-18.902-18.903-44.034-29.327-70.767-29.327-22.096 0-43.046 7.063-60.585 20.426-9.461 7.209-17.568 16.107-23.918 26.107-6.067-1.668-12.367-2.531-18.734-2.531-34.285 0-62.953 24.5-69.415 56.914-27.946 9.531-48.116 36.186-48.116 67.491 0 11.336 2.707 22.396 7.783 32.37l2.816 6.148c.828 1.565 1.981 2.851 3.342 3.843 3.729 2.723 9.049 3.181 13.76.69 5.702-3.016 7.56-9.197 5.748-14.646-2.124-5.231-5.867-9.312-7.515-14.643-1.358-4.396-2.1-9.058-2.1-13.894 0-25.926 21.018-47.337 46.944-47.337l.232.038c-.271-2.041-.425-4.102-.425-6.215 0-25.926 21.017-46.936 46.944-46.936 11.432 0 21.903 4.094 30.047 10.885 9.24-31.707 38.499-54.879 73.19-54.879 42.108 0 76.246 34.137 76.246 76.247 0 7.677-1.146 15.083-3.257 22.072 20.968 4.697 36.641 23.737 36.641 46.124 0 5.363-.92 10.548-2.59 15.407-.479 1.393-1.038 2.747-1.638 4.081l-3.394 6.309-.32.699c-3.097 5.859-1.544 13.286 4.885 16.686 4.367 2.31 9.262 2.086 12.925-.127 5.454-4.75 7.499-11.994 9.837-18.607 2.714-7.676 4.13-15.812 4.13-24.092.002-16.144-5.565-32.11-15.676-44.754z"/></g></svg>