<svg xmlns="http://www.w3.org/2000/svg" width="452" height="318" viewBox="0 0 452 318"><g fill="#FBC050"><path d="M223 51c-6.075 0-11-4.925-11-11v-29c0-6.075 4.925-11 11-11s11 4.925 11 11v29c0 6.075-4.925 11-11 11zM373 175h-29c-6.075 0-11-4.925-11-11s4.925-11 11-11h29c6.075 0 11 4.925 11 11s-4.925 11-11 11zM225.061 238.382c-43.694 0-79.243-35.548-79.243-79.242s35.548-79.243 79.243-79.243 79.242 35.549 79.242 79.243-35.548 79.242-79.242 79.242zm0-136.486c-31.563 0-57.243 25.68-57.243 57.243s25.679 57.242 57.243 57.242 57.242-25.679 57.242-57.242-25.679-57.243-57.242-57.243zM227 318c-6.075 0-11-4.925-11-11v-29c0-6.075 4.925-11 11-11s11 4.925 11 11v29c0 6.075-4.925 11-11 11zM108 175h-29c-6.075 0-11-4.925-11-11s4.925-11 11-11h29c6.075 0 11 4.925 11 11s-4.925 11-11 11zM308.024 83.732c-2.815 0-5.63-1.073-7.778-3.221-4.296-4.297-4.296-11.262 0-15.557l20.506-20.506c4.297-4.297 11.26-4.297 15.557 0 4.296 4.295 4.296 11.26 0 15.557l-20.506 20.506c-2.149 2.148-4.963 3.221-7.779 3.221zM326.409 277.48c-2.815 0-5.63-1.074-7.778-3.222l-20.506-20.506c-4.296-4.296-4.296-11.261 0-15.557 4.297-4.295 11.26-4.295 15.557 0l20.506 20.506c4.296 4.296 4.296 11.261 0 15.557-2.149 2.148-4.963 3.222-7.779 3.222zM122.055 275.359c-2.815 0-5.63-1.074-7.778-3.222-4.295-4.296-4.296-11.261 0-15.557l20.506-20.507c4.296-4.295 11.261-4.295 15.556 0 4.296 4.296 4.296 11.261 0 15.557l-20.506 20.507c-2.147 2.148-4.963 3.222-7.778 3.222zM139.026 90.098c-2.815 0-5.63-1.074-7.778-3.223l-20.506-20.506c-4.295-4.296-4.295-11.261 0-15.557 4.296-4.296 11.261-4.296 15.557 0l20.506 20.506c4.295 4.297 4.295 11.262 0 15.557-2.149 2.148-4.964 3.223-7.779 3.223z"/></g></svg>