<svg xmlns="http://www.w3.org/2000/svg" width="452" height="340" viewBox="0 0 452 340"><path d="M157.729 101.896c-31.563 0-57.242 25.68-57.242 57.243 0 20.982 11.355 39.353 28.235 49.319 5.256-3.612 11.018-6.533 17.154-8.626 6.294-31.571 33.657-55.625 66.757-56.854-6.992-23.715-28.952-41.082-54.904-41.082z" fill="none"/><path fill="#FBC050" d="M156 51c6.075 0 11-4.925 11-11v-29c0-6.075-4.925-11-11-11s-11 4.925-11 11v29c0 6.075 4.925 11 11 11zM128.723 208.459c-16.88-9.967-28.235-28.337-28.235-49.319 0-31.563 25.679-57.243 57.242-57.243 25.951 0 47.911 17.366 54.904 41.083.883-.033 1.768-.06 2.658-.06 6.367 0 12.667.863 18.734 2.531.441-.695.911-1.371 1.369-2.056-7.322-36.178-39.361-63.499-77.666-63.499-43.694 0-79.242 35.549-79.242 79.243 0 26.83 13.416 50.571 33.878 64.915 4.595-6.027 10.114-11.304 16.358-15.595zM51.669 164c0-6.075-4.925-11-11-11h-29c-6.075 0-11 4.925-11 11s4.925 11 11 11h29c6.075 0 11-4.925 11-11zM240.693 83.732c2.815 0 5.63-1.073 7.778-3.221l20.506-20.506c4.296-4.297 4.296-11.262 0-15.557-4.297-4.297-11.26-4.297-15.557 0l-20.506 20.506c-4.296 4.295-4.296 11.26 0 15.557 2.149 2.148 4.964 3.221 7.779 3.221zM67.452 236.074l-20.506 20.507c-4.297 4.296-4.296 11.261 0 15.557 2.147 2.147 4.963 3.222 7.777 3.222 2.815 0 5.631-1.074 7.779-3.222l20.506-20.507c4.296-4.296 4.295-11.261 0-15.557-4.294-4.295-11.26-4.295-15.556 0zM63.917 86.875c2.147 2.148 4.963 3.223 7.777 3.223 2.815 0 5.631-1.074 7.779-3.223 4.295-4.295 4.295-11.26 0-15.557l-20.506-20.505c-4.296-4.296-11.261-4.296-15.557 0s-4.296 11.261 0 15.557l20.507 20.505z"/><path fill="#fff" d="M436.316 222.794c-5.084-6.36-11.197-11.819-18-16.055.194-2.554.293-5.144.293-7.712 0-26.733-10.41-51.879-29.313-70.782-18.902-18.903-44.034-29.327-70.767-29.327-22.096 0-43.046 7.063-60.585 20.426-8.804 6.708-16.415 14.892-22.549 24.052-.458.685-.928 1.36-1.369 2.056-6.067-1.668-12.367-2.531-18.734-2.531-.891 0-1.775.026-2.658.06-33.1 1.229-60.463 25.282-66.757 56.854-6.137 2.093-11.898 5.014-17.154 8.626-6.243 4.291-11.763 9.568-16.357 15.596-9.15 12.005-14.604 27.006-14.604 43.271 0 17.776 6.63 34.884 18.669 48.173 11.89 13.124 28.065 21.903 45.552 23.896l1.345.605h217.699c18.974 0 36.842-8.064 50.336-21.877 13.305-13.616 20.633-31.723 20.633-50.572-.002-16.149-5.569-32.115-15.68-44.759zm-55.291 92.206h-216.344c-5.472-.681-10.673-2.253-15.453-4.554-16.291-7.839-27.632-24.214-27.632-43.251 0-12.445 4.852-23.841 12.756-32.336 8.562-9.203 20.707-15.001 34.188-15.001l.232.038c-.198-1.493-.332-2.997-.391-4.524-.021-.56-.034-1.123-.034-1.69 0-25.643 20.563-46.463 46.101-46.914l.844-.021c7.433 0 14.454 1.739 20.698 4.816 3.36 1.656 6.5 3.692 9.349 6.068 9.24-31.707 38.499-54.879 73.19-54.879 42.108 0 76.246 34.137 76.246 76.247 0 7.677-1.146 15.083-3.257 22.072 20.968 4.697 36.641 23.737 36.641 46.124 0 25.924-21.208 47.805-47.134 47.805z"/></svg>