<svg xmlns="http://www.w3.org/2000/svg" width="452" height="215.309" viewBox="0 0 452 215.309"><path fill="#fff" d="M224.201 215.282c-48.31 0-90.734-32.569-103.169-79.202l-5.34-20.025 20.025 5.339c6.953 1.854 14.148 2.793 21.388 2.793 45.641 0 82.772-37.132 82.772-82.772 0-7.239-.939-14.436-2.793-21.387l-5.338-20.028 20.025 5.341c46.633 12.435 79.202 54.859 79.202 103.169.001 58.875-47.898 106.772-106.772 106.772zm-72.751-67.244c14.232 26.17 41.948 43.244 72.751 43.244 45.641 0 82.772-37.132 82.772-82.772 0-30.803-17.074-58.519-43.244-72.751.099 1.882.148 3.767.148 5.655 0 58.875-47.897 106.772-106.772 106.772-1.887.001-3.773-.049-5.655-.148z"/></svg>